<svg width="36" height="36" viewBox="0 0 36 36" fill="none" xmlns="http://www.w3.org/2000/svg">
<path d="M20.1206 18L29.5596 8.56143C30.1455 7.97551 30.1455 7.02537 29.5596 6.43944C28.9737 5.85352 28.0236 5.85352 27.4376 6.43944L17.9991 15.8789L8.56097 6.43991C7.97504 5.85352 7.0249 5.85352 6.43944 6.43991C5.85399 7.02631 5.85352 7.97598 6.43944 8.5619L15.8789 18.0005L6.43944 27.4386C5.85352 28.0245 5.85352 28.9746 6.43944 29.5606C7.02537 30.1465 7.97551 30.1465 8.56143 29.5606L18 20.1211L27.4386 29.5606C28.0245 30.1465 28.9746 30.1465 29.5606 29.5606C30.1465 28.9746 30.1465 28.0245 29.5606 27.4386L20.1211 18H20.1206Z" fill="black"/>
</svg>
