<svg width="28" height="28" viewBox="0 0 28 28" fill="none" xmlns="http://www.w3.org/2000/svg">
<path d="M14 0C6.28078 0 0 6.28078 0 14C0 21.7192 6.28078 28 14 28C21.7192 28 28 21.7192 28 14C28 6.28078 21.7192 0 14 0ZM21.8248 10.3158L12.8775 19.1932C12.3512 19.7195 11.5089 19.7545 10.9477 19.2282L6.21088 14.9121C5.64962 14.3858 5.61467 13.5086 6.10534 12.9474C6.63165 12.3861 7.50884 12.3512 8.0701 12.8775L11.8242 16.3163L19.8244 8.31612C20.3856 7.75486 21.2628 7.75486 21.8241 8.31612C22.3853 8.87738 22.3853 9.75456 21.8241 10.3158H21.8248Z" fill="#FF3A4A"/>
</svg>
