<svg width="46" height="46" viewBox="0 0 46 46" fill="none" xmlns="http://www.w3.org/2000/svg">
<path d="M0 16.5768V11.2317C0.0100283 5.03423 5.03423 0.0100283 11.2317 0H16.5768C17.4593 0 18.1814 0.722041 18.1814 1.60453C18.1814 2.48703 17.4593 3.20907 16.5768 3.20907H11.2317C6.79921 3.2191 3.2191 6.79921 3.20907 11.2317V16.5768C3.20907 17.4593 2.48703 18.1814 1.60453 18.1814C0.722041 18.1814 0 17.4694 0 16.5768ZM34.7683 0H29.4232C28.5407 0 27.8186 0.722041 27.8186 1.60453C27.8186 2.48703 28.5407 3.20907 29.4232 3.20907H34.7683C39.2008 3.2191 42.7809 6.79921 42.7909 11.2317V16.5768C42.7909 17.4593 43.513 18.1814 44.3955 18.1814C45.278 18.1814 46 17.4593 46 16.5768V11.2317C45.99 5.03423 40.9658 0.0100283 34.7683 0ZM44.3955 29.9547C43.513 29.9547 42.7909 30.6767 42.7909 31.5592V34.7683C42.7809 39.2008 39.2008 42.7809 34.7683 42.7909H31.5592C30.6767 42.7909 29.9547 43.513 29.9547 44.3955C29.9547 45.278 30.6767 46 31.5592 46H34.7683C40.9658 45.99 45.99 40.9658 46 34.7683V31.5592C46 30.6667 45.278 29.9547 44.3955 29.9547ZM16.5768 42.7909H11.2317C6.79921 42.7809 3.2191 39.2008 3.20907 34.7683V29.4232C3.20907 28.5407 2.48703 27.8186 1.60453 27.8186C0.722041 27.8186 0 28.5407 0 29.4232V34.7683C0.0100283 40.9658 5.03423 45.99 11.2317 46H16.5768C17.4593 46 18.1814 45.278 18.1814 44.3955C18.1814 43.513 17.4694 42.7909 16.5768 42.7909ZM27.2771 36.3728H18.7229C14.7517 36.8341 11.1615 33.986 10.7002 30.0148C10.6401 29.4633 10.6401 28.9017 10.7002 28.3501V24.6095H8.02267C7.14018 24.6095 6.41814 23.8875 6.41814 23.005C6.41814 22.1225 7.14018 21.4005 8.02267 21.4005H10.7002V17.6499C10.2389 13.6787 13.087 10.0885 17.0582 9.62721C17.6098 9.56704 18.1714 9.56704 18.7229 9.62721H27.2771C31.2483 9.1659 34.8385 12.014 35.2998 15.9852C35.3599 16.5367 35.3599 17.0983 35.2998 17.6499V21.3905H37.9773C38.8598 21.3905 39.5819 22.1125 39.5819 22.995C39.5819 23.8775 38.8598 24.5995 37.9773 24.5995H35.2998V28.3401C35.7611 32.3113 32.913 35.9015 28.9418 36.3628C28.3902 36.433 27.8286 36.433 27.2771 36.3728ZM32.0907 24.5995H13.9093V28.3401C13.9093 31.7096 15.3534 33.1537 18.7229 33.1537H27.2771C30.6466 33.1537 32.0907 31.7096 32.0907 28.3401V24.5995ZM32.0907 17.6499C32.0907 14.2804 30.6466 12.8363 27.2771 12.8363H18.7229C15.3534 12.8363 13.9093 14.2804 13.9093 17.6499V21.3905H32.0907V17.6499Z" fill="#D4D4D4"/>
</svg>
