<svg width="46" height="46" viewBox="0 0 46 46" fill="none" xmlns="http://www.w3.org/2000/svg">
<path d="M33.7985 34.8284L30.6494 37.9773L33.7985 41.1162C34.4524 41.7179 34.4826 42.7308 33.8789 43.3826C33.2753 44.0344 32.2591 44.0645 31.6052 43.4628C31.575 43.4327 31.5549 43.4127 31.5247 43.3826L27.2287 39.1105C26.6049 38.4888 26.5949 37.4659 27.2287 36.8441L31.5247 32.562C32.1787 31.9603 33.1948 31.9904 33.7985 32.6423C34.3719 33.254 34.3719 34.2167 33.7985 34.8284ZM44.5234 36.8441L40.2374 32.562C39.5835 31.9603 38.5673 31.9904 37.9637 32.6423C37.3902 33.254 37.3902 34.2167 37.9637 34.8284L41.1127 37.9773L37.9637 41.1162C37.3097 41.7179 37.2795 42.7308 37.8832 43.3826C38.4868 44.0344 39.503 44.0645 40.1569 43.4628C40.1871 43.4327 40.2072 43.4127 40.2374 43.3826L44.5334 39.1005C45.1572 38.4787 45.1572 37.4659 44.5234 36.8441ZM39.6338 12.3048C39.6338 6.18749 36.6457 3.20907 30.5086 3.20907H29.9753V4.8136C29.9653 7.47111 27.8122 9.61718 25.1461 9.62721H18.6468C16.0209 9.61718 13.888 7.53128 13.8075 4.92391L13.7673 3.20907H13.3346C7.20756 3.20907 4.21948 6.18749 4.21948 12.3048V33.6952C4.21948 39.8125 7.20756 42.7909 13.3447 42.7909H24.0797C24.965 42.7909 25.6894 43.513 25.6894 44.3955C25.6894 45.278 24.965 46 24.0797 46H13.3447C5.49721 46 1 41.5073 1 33.6952V12.3048C1 4.48267 5.50727 0 13.3447 0H30.5186C38.356 0 42.8532 4.4927 42.8532 12.3048V27.2771C42.8532 28.1596 42.1289 28.8816 41.2435 28.8816C40.3582 28.8816 39.6338 28.1596 39.6338 27.2771V12.3048ZM26.7558 3.20907H16.9867L17.027 4.84369C17.0572 5.71615 17.7715 6.40811 18.6468 6.41814H25.1461C26.0315 6.40811 26.7458 5.6961 26.7558 4.8136V3.20907Z" fill="#D4D4D4"/>
</svg>
