<svg width="46" height="46" viewBox="0 0 46 46" fill="none" xmlns="http://www.w3.org/2000/svg">
<path d="M34.1001 0H20.4316C12.2705 0 9.57686 4.52613 8.85588 8.80193C4.58009 9.5229 0.0539551 12.2166 0.0539551 20.3776V28.9192C0.0539551 38.7826 4.58009 40.7552 11.89 40.7552H12.6811C12.7311 40.7652 12.8313 40.8353 12.8313 40.8053L15.3947 44.2199C16.6264 46.0624 19.1198 46.5531 20.9623 45.3214C21.3929 45.031 21.7734 44.6605 22.0638 44.2199L24.7174 40.7552H25.5685C33.7696 40.7552 36.4433 36.1991 37.1442 31.9533C41.43 31.2323 45.9461 28.5387 45.9461 20.3776V11.836C45.9361 4.09555 41.8506 0 34.1001 0ZM34.1902 28.9292C34.1902 29.4199 34.1702 29.9105 34.1101 30.3912C33.6995 35.2778 30.9759 37.5509 25.5585 37.5509H24.7074C23.6659 37.5509 22.6846 38.0415 22.0638 38.8727L19.5003 42.2973C19.29 42.7179 18.7793 42.8981 18.3588 42.6878C18.1885 42.6077 18.0483 42.4675 17.9682 42.2973L15.3947 38.8627C14.7439 38.0616 13.7826 37.5809 12.7512 37.5509H11.9C5.52136 37.5509 3.2583 36.2491 3.2583 28.9292V20.3876C3.2583 14.9703 5.53138 12.2566 10.4881 11.826C10.9487 11.776 11.4194 11.7459 11.89 11.7559H25.5585C31.5266 11.7559 34.1902 14.4195 34.1902 20.3876V28.9292ZM42.7318 20.3776C42.7318 25.064 41.0195 27.7376 37.3946 28.6388V20.3776C37.3946 12.6371 33.299 8.54157 25.5585 8.54157H12.1704C13.0716 4.90665 15.7352 3.20434 20.4316 3.20434H34.1001C40.0682 3.20434 42.7318 5.86795 42.7318 11.836V20.3776ZM20.8622 25.5146C20.8622 26.6962 19.9109 27.6475 18.7293 27.6475H18.7192C17.5376 27.6475 16.5864 26.6862 16.5864 25.5046C16.5864 24.323 17.5477 23.3717 18.7293 23.3717C19.9109 23.3817 20.8622 24.333 20.8622 25.5146ZM27.6914 25.5146C27.6914 26.6962 26.7401 27.6475 25.5585 27.6475H25.5485C24.3669 27.6475 23.4156 26.6862 23.4156 25.5046C23.4156 24.323 24.3769 23.3717 25.5585 23.3717C26.7401 23.3817 27.6914 24.333 27.6914 25.5146ZM14.0329 25.5146C14.0329 26.6962 13.0816 27.6475 11.9 27.6475H11.89C10.7084 27.6475 9.7571 26.6862 9.7571 25.5046C9.7571 24.323 10.7184 23.3717 11.9 23.3717C13.0816 23.3817 14.0329 24.333 14.0329 25.5146Z" fill="#D4D4D4"/>
</svg>
