<svg width="24" height="24" viewBox="0 0 24 24" fill="none" xmlns="http://www.w3.org/2000/svg">
<path d="M12 0C5.38125 0 0 5.38125 0 12C0 18.6187 5.38125 24 12 24C18.6187 24 24 18.6187 24 12C24 5.38125 18.6187 0 12 0ZM17.4422 13.6547H11.7656C11.7563 13.6547 11.7422 13.6547 11.7328 13.6547C11.7234 13.6547 11.7094 13.6547 11.7 13.6547C11.1422 13.6547 10.6875 13.2 10.6875 12.6422V4.39219C10.6875 3.83437 11.1422 3.37969 11.7 3.37969C12.2578 3.37969 12.7125 3.83437 12.7125 4.39219V11.625H17.4469C18.0047 11.625 18.4594 12.0797 18.4594 12.6375C18.4594 13.1953 18 13.6547 17.4422 13.6547Z" fill="#D4D4D4"/>
</svg>
